<?xml version="1.0" standalone="no"?><!DOCTYPE svg PUBLIC "-//W3C//DTD SVG 1.1//EN" "http://www.w3.org/Graphics/SVG/1.1/DTD/svg11.dtd"><svg t="1741231830833" class="icon" viewBox="0 0 1241 1024" version="1.1" xmlns="http://www.w3.org/2000/svg" p-id="7339" xmlns:xlink="http://www.w3.org/1999/xlink" width="242.3828125" height="200"><path d="M620.57472 1018.79808c252.25216 0 456.74496-38.20544 456.74496-85.34016s-204.4928-85.34016-456.74496-85.34016C368.3328 848.11776 163.84 886.3232 163.84 933.45792s204.4928 85.34016 456.73472 85.34016z" fill="#71D3FF" p-id="7340"></path><path d="M985.9584 682.74176l-161.1776-198.36928c-7.7312-9.33888-19.03616-14.99136-30.93504-14.99136H447.30368c-11.89888 0-23.20384 5.65248-30.94528 14.99136L255.19104 682.74176v103.6288h730.7776v-103.6288z" fill="#0080AC" p-id="7341"></path><path d="M391.75168 213.3504h457.64608a26.95168 26.95168 0 0 1 26.95168 26.95168v628.8384a26.94144 26.94144 0 0 1-26.95168 26.95168H391.75168a26.95168 26.95168 0 0 1-26.95168-26.94144v-628.8384a26.95168 26.95168 0 0 1 26.95168-26.96192z" fill="#A4E4FF" p-id="7342"></path><path d="M451.35872 280.41216h338.432a13.47584 13.47584 0 0 1 13.47584 13.4656v168.1408a13.4656 13.4656 0 0 1-13.47584 13.4656h-338.432a13.47584 13.47584 0 0 1-13.47584-13.47584V293.888a13.47584 13.47584 0 0 1 13.47584-13.47584z m1.76128 268.21632h334.90944a15.23712 15.23712 0 0 1 0 30.47424H453.12a15.23712 15.23712 0 0 1 0-30.47424z m0 79.24736h334.90944a15.23712 15.23712 0 1 1 0 30.48448H453.12a15.24736 15.24736 0 0 1 0-30.48448z m531.3536 293.0688c-5.2224 20.6848-23.552 36.10624-45.3632 36.10624H302.03904c-21.8112 0-40.15104-15.43168-45.3632-36.10624a49.2544 49.2544 0 0 1-1.50528-12.06272V682.74176h177.3056c19.57888 0 35.36896 16.4864 35.36896 36.51584v0.26624c0 20.0192 15.96416 36.17792 35.54304 36.17792h234.3424c19.58912 0 35.55328-16.30208 35.55328-36.33152v-0.08192c0-20.0192 15.79008-36.5568 35.36896-36.5568h177.29536v226.1504c0 4.16768-0.512 8.192-1.4848 12.06272z" fill="#0099D2" p-id="7343"></path><path d="M1006.76608 224.28672l-46.01856 17.84832a6.74816 6.74816 0 0 1-8.86784-8.2944l13.04576-41.80992c-17.43872-19.83488-27.67872-44.01152-27.67872-70.11328C937.24672 54.5792 1005.40416 0 1089.49504 0c84.0704 0 152.23808 54.5792 152.23808 121.91744 0 67.33824-68.15744 121.91744-152.24832 121.91744-30.50496 0-58.90048-7.18848-82.71872-19.5584z" fill="#A4E3FF" p-id="7344"></path><path d="M1149.47072 143.93344c10.5984 0 19.18976-8.4992 19.18976-18.96448a19.07712 19.07712 0 0 0-19.18976-18.96448c-10.60864 0-19.2 8.4992-19.2 18.96448 0 10.47552 8.59136 18.96448 19.2 18.96448z" fill="#FFFFFF" p-id="7345"></path><path d="M1048.70912 141.55776h-38.37952l19.51744-33.1776 18.86208 33.1776z m23.99232-33.1776h33.5872v33.1776h-33.5872v-33.1776z" fill="#FFFFFF" p-id="7346"></path></svg>